<svg id="Layer_1" data-name="Layer 1" xmlns="http://www.w3.org/2000/svg" viewBox="0 0 32 32"><defs><style>.cls-1{fill:#5787b8;}.cls-2{fill:#fff;}</style></defs><title>icon_mail_2</title><g id="Page-1"><g id="Custom-Destop-Copy-10"><g id="Group-4"><circle id="Oval-Copy-2" class="cls-1" cx="16" cy="16" r="16"/><g id="close-envelope"><path id="Shape" class="cls-2" d="M16,18l-2-1.52L8.36,20.73a1.24,1.24,0,0,0,.79.27h13.7a1.26,1.26,0,0,0,.79-.27L18,16.48Z"/><path id="Shape-2" data-name="Shape" class="cls-2" d="M23.64,11.27a1.24,1.24,0,0,0-.79-.27H9.15a1.26,1.26,0,0,0-.79.27L16,17Z"/><polygon id="Shape-3" data-name="Shape" class="cls-2" points="8 11.88 8 20.19 13.52 16.08 8 11.88"/><polygon id="Shape-4" data-name="Shape" class="cls-2" points="18.48 16.08 24 20.19 24 11.88 18.48 16.08"/></g></g></g></g></svg>