<svg id="Layer_1" data-name="Layer 1" xmlns="http://www.w3.org/2000/svg" viewBox="0 0 32 32"><defs><style>.cls-1{fill:#1da1f2;}.cls-2{isolation:isolate;}.cls-3{fill:#fff;}</style></defs><title>icon_tw_2</title><g id="Page-1"><g id="Custom-Destop-Copy-10"><g id="Group-3"><circle id="Oval-Copy" class="cls-1" cx="16" cy="16" r="16"/><g class="cls-2"><path class="cls-3" d="M22.64,13.35c0,.14,0,.28,0,.42A9.23,9.23,0,0,1,8.44,21.54a6.74,6.74,0,0,0,.79,0,6.5,6.5,0,0,0,4-1.38,3.24,3.24,0,0,1-3-2.25,4.07,4.07,0,0,0,.61.05,3.41,3.41,0,0,0,.85-.11,3.25,3.25,0,0,1-2.6-3.18v0a3.33,3.33,0,0,0,1.47.41,3.23,3.23,0,0,1-1-4.34,9.18,9.18,0,0,0,6.68,3.39,3.65,3.65,0,0,1-.08-.74,3.25,3.25,0,0,1,5.62-2.22,6.36,6.36,0,0,0,2.05-.78,3.24,3.24,0,0,1-1.42,1.79,6.33,6.33,0,0,0,1.87-.51A7,7,0,0,1,22.64,13.35Z"/></g></g></g></g></svg>